COMMENT vga
STARTFONT 2.1
FONT vga
SIZE 12 75 75
FONTBOUNDINGBOX 8 12 0 -4
STARTPROPERTIES 3
FONT_DESCENT 4
FONT_ASCENT 8
AVERAGE_WIDTH 80
DEFAULT_CHAR 0
ENDPROPERTIES
CHARS 292
STARTCHAR u203A
ENCODING 8250
SWIDTH 666 0
DWIDTH 8 0
BBX 8 12 0 -4
BITMAP
00
00
60
30
18
0C
18
30
60
00
00
00
ENDCHAR
STARTCHAR u0020
ENCODING 32
SWIDTH 666 0
DWIDTH 8 0
BBX 8 12 0 -4
BITMAP
00
00
00
00
00
00
00
00
00
00
00
00
ENDCHAR
STARTCHAR u005A
ENCODING 90
SWIDTH 666 0
DWIDTH 8 0
BBX 8 12 0 -4
BITMAP
00
FE
C6
8C
18
30
60
C2
C6
FE
00
00
ENDCHAR
STARTCHAR u00CE
ENCODING 206
SWIDTH 666 0
DWIDTH 8 0
BBX 8 12 0 -4
BITMAP
78
CC
78
30
30
30
30
30
30
78
00
00
ENDCHAR
STARTCHAR u0076
ENCODING 118
SWIDTH 666 0
DWIDTH 8 0
BBX 8 12 0 -4
BITMAP
00
00
00
00
C6
C6
C6
6C
38
10
00
00
ENDCHAR
STARTCHAR u0047
ENCODING 71
SWIDTH 666 0
DWIDTH 8 0
BBX 8 12 0 -4
BITMAP
00
7C
C6
C6
C0
C0
CE
C6
C6
7C
00
00
ENDCHAR
STARTCHAR u201A
ENCODING 8218
SWIDTH 666 0
DWIDTH 8 0
BBX 8 12 0 -4
BITMAP
00
00
00
00
00
00
00
00
38
38
18
30
ENDCHAR
STARTCHAR u0066
ENCODING 102
SWIDTH 666 0
DWIDTH 8 0
BBX 8 12 0 -4
BITMAP
00
1C
36
30
FC
30
30
30
30
78
00
00
ENDCHAR
STARTCHAR u2212
ENCODING 8722
SWIDTH 666 0
DWIDTH 8 0
BBX 8 12 0 -4
BITMAP
00
00
00
00
00
FE
00
00
00
00
00
00
ENDCHAR
STARTCHAR u014B
ENCODING 331
SWIDTH 666 0
DWIDTH 8 0
BBX 8 12 0 -4
BITMAP
00
00
00
DC
FE
F6
E6
C6
C6
06
1C
00
ENDCHAR
STARTCHAR u0166
ENCODING 358
SWIDTH 666 0
DWIDTH 8 0
BBX 8 12 0 -4
BITMAP
00
FF
DB
99
1E
3C
78
18
18
3C
00
00
ENDCHAR
STARTCHAR u2122
ENCODING 8482
SWIDTH 666 0
DWIDTH 8 0
BBX 8 12 0 -4
BITMAP
00
3C
42
B9
A5
B9
A5
A5
42
3C
00
00
ENDCHAR
STARTCHAR u0037
ENCODING 55
SWIDTH 666 0
DWIDTH 8 0
BBX 8 12 0 -4
BITMAP
00
FE
C6
0C
18
30
30
30
30
30
00
00
ENDCHAR
STARTCHAR u0054
ENCODING 84
SWIDTH 666 0
DWIDTH 8 0
BBX 8 12 0 -4
BITMAP
00
FF
DB
99
18
18
18
18
18
3C
00
00
ENDCHAR
STARTCHAR u00E9
ENCODING 233
SWIDTH 666 0
DWIDTH 8 0
BBX 8 12 0 -4
BITMAP
00
0C
18
20
7C
C6
FE
C0
C6
7C
00
00
ENDCHAR
STARTCHAR u253B
ENCODING 9531
SWIDTH 666 0
DWIDTH 8 0
BBX 8 12 0 -4
BITMAP
6C
6C
6C
6C
EF
00
FF
00
00
00
00
00
ENDCHAR
STARTCHAR u00C2
ENCODING 194
SWIDTH 666 0
DWIDTH 8 0
BBX 8 12 0 -4
BITMAP
7C
C6
38
6C
C6
FE
C6
C6
C6
C6
00
00
ENDCHAR
STARTCHAR u0039
ENCODING 57
SWIDTH 666 0
DWIDTH 8 0
BBX 8 12 0 -4
BITMAP
00
7C
C6
C6
C6
7E
06
06
C6
7C
00
00
ENDCHAR
STARTCHAR u00DC
ENCODING 220
SWIDTH 666 0
DWIDTH 8 0
BBX 8 12 0 -4
BITMAP
C6
00
C6
C6
C6
C6
C6
C6
C6
7C
00
00
ENDCHAR
STARTCHAR u013C
ENCODING 316
SWIDTH 666 0
DWIDTH 8 0
BBX 8 12 0 -4
BITMAP
00
38
38
18
18
18
18
18
18
3C
18
70
ENDCHAR
STARTCHAR u00A3
ENCODING 163
SWIDTH 666 0
DWIDTH 8 0
BBX 8 12 0 -4
BITMAP
00
1C
36
30
FC
30
30
F3
BB
EE
00
00
ENDCHAR
STARTCHAR u2514
ENCODING 9492
SWIDTH 666 0
DWIDTH 8 0
BBX 8 12 0 -4
BITMAP
18
18
18
18
18
1F
00
00
00
00
00
00
ENDCHAR
STARTCHAR u0059
ENCODING 89
SWIDTH 666 0
DWIDTH 8 0
BBX 8 12 0 -4
BITMAP
00
66
66
66
66
3C
18
18
18
3C
00
00
ENDCHAR
STARTCHAR u00AF
ENCODING 175
SWIDTH 666 0
DWIDTH 8 0
BBX 8 12 0 -4
BITMAP
7C
00
00
00
00
00
00
00
00
00
00
00
ENDCHAR
STARTCHAR u0023
ENCODING 35
SWIDTH 666 0
DWIDTH 8 0
BBX 8 12 0 -4
BITMAP
00
00
00
6C
FE
6C
6C
6C
FE
6C
00
00
ENDCHAR
STARTCHAR u00D0
ENCODING 208
SWIDTH 666 0
DWIDTH 8 0
BBX 8 12 0 -4
BITMAP
00
F8
6C
66
F6
F6
66
66
6C
F8
00
00
ENDCHAR
STARTCHAR uF804
ENCODING 63492
SWIDTH 666 0
DWIDTH 8 0
BBX 8 12 0 -4
BITMAP
00
00
00
00
00
00
00
00
00
00
00
FF
ENDCHAR
STARTCHAR u2423
ENCODING 9251
SWIDTH 666 0
DWIDTH 8 0
BBX 8 12 0 -4
BITMAP
00
00
00
00
00
00
00
00
00
C6
FE
00
ENDCHAR
STARTCHAR u201B
ENCODING 8219
SWIDTH 666 0
DWIDTH 8 0
BBX 8 12 0 -4
BITMAP
00
38
38
30
18
00
00
00
00
00
00
00
ENDCHAR
STARTCHAR u005D
ENCODING 93
SWIDTH 666 0
DWIDTH 8 0
BBX 8 12 0 -4
BITMAP
00
7C
0C
0C
0C
0C
0C
0C
0C
7C
00
00
ENDCHAR
STARTCHAR u0145
ENCODING 325
SWIDTH 666 0
DWIDTH 8 0
BBX 8 12 0 -4
BITMAP
00
C6
E6
E6
F6
DE
CE
CE
C6
C6
0C
38
ENDCHAR
STARTCHAR u0123
ENCODING 291
SWIDTH 666 0
DWIDTH 8 0
BBX 8 12 0 -4
BITMAP
00
1C
30
18
76
CE
C6
C6
CE
76
06
FC
ENDCHAR
STARTCHAR u0072
ENCODING 114
SWIDTH 666 0
DWIDTH 8 0
BBX 8 12 0 -4
BITMAP
00
00
00
00
DC
66
60
60
60
F0
00
00
ENDCHAR
STARTCHAR u00C7
ENCODING 199
SWIDTH 666 0
DWIDTH 8 0
BBX 8 12 0 -4
BITMAP
00
3C
66
C2
C0
C0
C0
C2
66
3C
0C
38
ENDCHAR
STARTCHAR u00E2
ENCODING 226
SWIDTH 666 0
DWIDTH 8 0
BBX 8 12 0 -4
BITMAP
00
78
CC
00
78
0C
7C
CC
CC
76
00
00
ENDCHAR
STARTCHAR u003A
ENCODING 58
SWIDTH 666 0
DWIDTH 8 0
BBX 8 12 0 -4
BITMAP
00
00
00
00
38
38
00
00
38
38
00
00
ENDCHAR
STARTCHAR u00D3
ENCODING 211
SWIDTH 666 0
DWIDTH 8 0
BBX 8 12 0 -4
BITMAP
1C
30
7C
C6
C6
C6
C6
C6
C6
7C
00
00
ENDCHAR
STARTCHAR u017E
ENCODING 382
SWIDTH 666 0
DWIDTH 8 0
BBX 8 12 0 -4
BITMAP
00
6C
38
00
FE
8C
18
30
62
FE
00
00
ENDCHAR
STARTCHAR u0065
ENCODING 101
SWIDTH 666 0
DWIDTH 8 0
BBX 8 12 0 -4
BITMAP
00
00
00
00
7C
C6
FE
C0
C6
7C
00
00
ENDCHAR
STARTCHAR u0049
ENCODING 73
SWIDTH 666 0
DWIDTH 8 0
BBX 8 12 0 -4
BITMAP
00
3C
18
18
18
18
18
18
18
3C
00
00
ENDCHAR
STARTCHAR u004C
ENCODING 76
SWIDTH 666 0
DWIDTH 8 0
BBX 8 12 0 -4
BITMAP
00
F0
60
60
60
60
60
62
66
FE
00
00
ENDCHAR
STARTCHAR u0137
ENCODING 311
SWIDTH 666 0
DWIDTH 8 0
BBX 8 12 0 -4
BITMAP
00
E0
60
60
66
6C
78
6C
66
E6
0C
38
ENDCHAR
STARTCHAR u003E
ENCODING 62
SWIDTH 666 0
DWIDTH 8 0
BBX 8 12 0 -4
BITMAP
00
00
60
30
18
0C
18
30
60
00
00
00
ENDCHAR
STARTCHAR u201F
ENCODING 8223
SWIDTH 666 0
DWIDTH 8 0
BBX 8 12 0 -4
BITMAP
00
EE
EE
66
CC
00
00
00
00
00
00
00
ENDCHAR
STARTCHAR u2011
ENCODING 8209
SWIDTH 666 0
DWIDTH 8 0
BBX 8 12 0 -4
BITMAP
00
00
00
00
00
00
3C
00
00
00
00
00
ENDCHAR
STARTCHAR u0043
ENCODING 67
SWIDTH 666 0
DWIDTH 8 0
BBX 8 12 0 -4
BITMAP
00
3C
66
C2
C0
C0
C0
C2
66
3C
00
00
ENDCHAR
STARTCHAR u00F1
ENCODING 241
SWIDTH 666 0
DWIDTH 8 0
BBX 8 12 0 -4
BITMAP
00
76
DC
00
DC
66
66
66
66
66
00
00
ENDCHAR
STARTCHAR u2501
ENCODING 9473
SWIDTH 666 0
DWIDTH 8 0
BBX 8 12 0 -4
BITMAP
00
00
00
00
FF
00
FF
00
00
00
00
00
ENDCHAR
STARTCHAR u00C6
ENCODING 198
SWIDTH 666 0
DWIDTH 8 0
BBX 8 12 0 -4
BITMAP
00
3E
78
D8
D8
FE
D8
D8
D8
DE
00
00
ENDCHAR
STARTCHAR u253C
ENCODING 9532
SWIDTH 666 0
DWIDTH 8 0
BBX 8 12 0 -4
BITMAP
18
18
18
18
18
FF
18
18
18
18
18
18
ENDCHAR
STARTCHAR u2580
ENCODING 9600
SWIDTH 666 0
DWIDTH 8 0
BBX 8 12 0 -4
BITMAP
FF
FF
FF
FF
FF
FF
00
00
00
00
00
00
ENDCHAR
STARTCHAR u02DC
ENCODING 732
SWIDTH 666 0
DWIDTH 8 0
BBX 8 12 0 -4
BITMAP
00
76
DC
00
00
00
00
00
00
00
00
00
ENDCHAR
STARTCHAR u0118
ENCODING 280
SWIDTH 666 0
DWIDTH 8 0
BBX 8 12 0 -4
BITMAP
00
FE
66
60
60
7C
60
60
66
FE
18
0E
ENDCHAR
STARTCHAR u0111
ENCODING 273
SWIDTH 666 0
DWIDTH 8 0
BBX 8 12 0 -4
BITMAP
00
0C
7E
0C
7C
CC
CC
CC
CC
7E
00
00
ENDCHAR
STARTCHAR u00EC
ENCODING 236
SWIDTH 666 0
DWIDTH 8 0
BBX 8 12 0 -4
BITMAP
00
30
18
04
38
18
18
18
18
3C
00
00
ENDCHAR
STARTCHAR u0169
ENCODING 361
SWIDTH 666 0
DWIDTH 8 0
BBX 8 12 0 -4
BITMAP
00
76
DC
00
CC
CC
CC
CC
CC
76
00
00
ENDCHAR
STARTCHAR u00A8
ENCODING 168
SWIDTH 666 0
DWIDTH 8 0
BBX 8 12 0 -4
BITMAP
66
00
00
00
00
00
00
00
00
00
00
00
ENDCHAR
STARTCHAR u00DA
ENCODING 218
SWIDTH 666 0
DWIDTH 8 0
BBX 8 12 0 -4
BITMAP
0E
18
C6
C6
C6
C6
C6
C6
C6
7C
00
00
ENDCHAR
STARTCHAR u00CA
ENCODING 202
SWIDTH 666 0
DWIDTH 8 0
BBX 8 12 0 -4
BITMAP
38
6C
00
FE
60
78
60
60
66
FE
00
00
ENDCHAR
STARTCHAR u00F9
ENCODING 249
SWIDTH 666 0
DWIDTH 8 0
BBX 8 12 0 -4
BITMAP
00
60
30
08
CC
CC
CC
CC
CC
76
00
00
ENDCHAR
STARTCHAR u00B8
ENCODING 184
SWIDTH 666 0
DWIDTH 8 0
BBX 8 12 0 -4
BITMAP
00
00
00
00
00
00
00
00
00
00
0C
38
ENDCHAR
STARTCHAR u0031
ENCODING 49
SWIDTH 666 0
DWIDTH 8 0
BBX 8 12 0 -4
BITMAP
00
18
78
18
18
18
18
18
18
7E
00
00
ENDCHAR
STARTCHAR u2554
ENCODING 9556
SWIDTH 666 0
DWIDTH 8 0
BBX 8 12 0 -4
BITMAP
00
00
00
00
7F
60
6F
6C
6C
6C
6C
6C
ENDCHAR
STARTCHAR u2503
ENCODING 9475
SWIDTH 666 0
DWIDTH 8 0
BBX 8 12 0 -4
BITMAP
6C
6C
6C
6C
6C
6C
6C
6C
6C
6C
6C
6C
ENDCHAR
STARTCHAR u250C
ENCODING 9484
SWIDTH 666 0
DWIDTH 8 0
BBX 8 12 0 -4
BITMAP
00
00
00
00
00
1F
18
18
18
18
18
18
ENDCHAR
STARTCHAR u007C
ENCODING 124
SWIDTH 666 0
DWIDTH 8 0
BBX 8 12 0 -4
BITMAP
00
18
18
18
18
18
18
18
18
18
00
00
ENDCHAR
STARTCHAR u0068
ENCODING 104
SWIDTH 666 0
DWIDTH 8 0
BBX 8 12 0 -4
BITMAP
00
E0
60
60
6C
76
66
66
66
E6
00
00
ENDCHAR
STARTCHAR u00EA
ENCODING 234
SWIDTH 666 0
DWIDTH 8 0
BBX 8 12 0 -4
BITMAP
00
38
6C
00
7C
C6
FE
C0
C6
7C
00
00
ENDCHAR
STARTCHAR u2010
ENCODING 8208
SWIDTH 666 0
DWIDTH 8 0
BBX 8 12 0 -4
BITMAP
00
00
00
00
00
00
3C
00
00
00
00
00
ENDCHAR
STARTCHAR u0060
ENCODING 96
SWIDTH 666 0
DWIDTH 8 0
BBX 8 12 0 -4
BITMAP
00
38
38
30
18
00
00
00
00
00
00
00
ENDCHAR
STARTCHAR u2591
ENCODING 9617
SWIDTH 666 0
DWIDTH 8 0
BBX 8 12 0 -4
BITMAP
22
88
22
88
22
88
22
88
22
88
22
88
ENDCHAR
STARTCHAR u0146
ENCODING 326
SWIDTH 666 0
DWIDTH 8 0
BBX 8 12 0 -4
BITMAP
00
00
00
00
DC
66
66
66
66
66
0C
38
ENDCHAR
STARTCHAR u2524
ENCODING 9508
SWIDTH 666 0
DWIDTH 8 0
BBX 8 12 0 -4
BITMAP
18
18
18
18
18
F8
18
18
18
18
18
18
ENDCHAR
STARTCHAR u2551
ENCODING 9553
SWIDTH 666 0
DWIDTH 8 0
BBX 8 12 0 -4
BITMAP
6C
6C
6C
6C
6C
6C
6C
6C
6C
6C
6C
6C
ENDCHAR
STARTCHAR uF800
ENCODING 63488
SWIDTH 666 0
DWIDTH 8 0
BBX 8 12 0 -4
BITMAP
7C
00
00
00
00
00
00
00
00
00
00
00
ENDCHAR
STARTCHAR u00A0
ENCODING 160
SWIDTH 666 0
DWIDTH 8 0
BBX 8 12 0 -4
BITMAP
00
00
00
00
00
00
00
00
00
00
00
00
ENDCHAR
STARTCHAR u002F
ENCODING 47
SWIDTH 666 0
DWIDTH 8 0
BBX 8 12 0 -4
BITMAP
00
06
0E
0C
18
38
30
60
E0
C0
00
00
ENDCHAR
STARTCHAR u0062
ENCODING 98
SWIDTH 666 0
DWIDTH 8 0
BBX 8 12 0 -4
BITMAP
00
E0
60
60
7C
66
66
66
66
FC
00
00
ENDCHAR
STARTCHAR u201E
ENCODING 8222
SWIDTH 666 0
DWIDTH 8 0
BBX 8 12 0 -4
BITMAP
00
00
00
00
00
00
00
00
EE
EE
66
CC
ENDCHAR
STARTCHAR u2584
ENCODING 9604
SWIDTH 666 0
DWIDTH 8 0
BBX 8 12 0 -4
BITMAP
00
00
00
00
00
00
FF
FF
FF
FF
FF
FF
ENDCHAR
STARTCHAR u0025
ENCODING 37
SWIDTH 666 0
DWIDTH 8 0
BBX 8 12 0 -4
BITMAP
00
E6
AE
EC
18
38
30
6E
EA
CE
00
00
ENDCHAR
STARTCHAR u002B
ENCODING 43
SWIDTH 666 0
DWIDTH 8 0
BBX 8 12 0 -4
BITMAP
00
00
00
18
18
7E
18
18
00
00
00
00
ENDCHAR
STARTCHAR u00C3
ENCODING 195
SWIDTH 666 0
DWIDTH 8 0
BBX 8 12 0 -4
BITMAP
76
DC
38
6C
C6
FE
C6
C6
C6
C6
00
00
ENDCHAR
STARTCHAR u251C
ENCODING 9500
SWIDTH 666 0
DWIDTH 8 0
BBX 8 12 0 -4
BITMAP
18
18
18
18
18
1F
18
18
18
18
18
18
ENDCHAR
STARTCHAR u00C1
ENCODING 193
SWIDTH 666 0
DWIDTH 8 0
BBX 8 12 0 -4
BITMAP
1C
30
7C
C6
C6
FE
C6
C6
C6
C6
00
00
ENDCHAR
STARTCHAR u0077
ENCODING 119
SWIDTH 666 0
DWIDTH 8 0
BBX 8 12 0 -4
BITMAP
00
00
00
00
C6
C6
D6
D6
FE
6C
00
00
ENDCHAR
STARTCHAR u00B4
ENCODING 180
SWIDTH 666 0
DWIDTH 8 0
BBX 8 12 0 -4
BITMAP
0E
18
00
00
00
00
00
00
00
00
00
00
ENDCHAR
STARTCHAR u00F4
ENCODING 244
SWIDTH 666 0
DWIDTH 8 0
BBX 8 12 0 -4
BITMAP
00
38
6C
00
7C
C6
C6
C6
C6
7C
00
00
ENDCHAR
STARTCHAR u00A2
ENCODING 162
SWIDTH 666 0
DWIDTH 8 0
BBX 8 12 0 -4
BITMAP
00
00
18
18
7E
DB
D8
D8
DB
7E
18
18
ENDCHAR
STARTCHAR u00F6
ENCODING 246
SWIDTH 666 0
DWIDTH 8 0
BBX 8 12 0 -4
BITMAP
00
00
6C
00
7C
C6
C6
C6
C6
7C
00
00
ENDCHAR
STARTCHAR u00F0
ENCODING 240
SWIDTH 666 0
DWIDTH 8 0
BBX 8 12 0 -4
BITMAP
00
0C
7E
0C
7C
CC
CC
CC
CC
7E
00
00
ENDCHAR
STARTCHAR u004A
ENCODING 74
SWIDTH 666 0
DWIDTH 8 0
BBX 8 12 0 -4
BITMAP
00
3C
18
18
18
18
18
D8
D8
70
00
00
ENDCHAR
STARTCHAR u003D
ENCODING 61
SWIDTH 666 0
DWIDTH 8 0
BBX 8 12 0 -4
BITMAP
00
00
00
00
FE
00
FE
00
00
00
00
00
ENDCHAR
STARTCHAR u00E6
ENCODING 230
SWIDTH 666 0
DWIDTH 8 0
BBX 8 12 0 -4
BITMAP
00
00
00
00
EC
36
7E
D8
D8
6E
00
00
ENDCHAR
STARTCHAR u012B
ENCODING 299
SWIDTH 666 0
DWIDTH 8 0
BBX 8 12 0 -4
BITMAP
00
00
7C
00
38
18
18
18
18
3C
00
00
ENDCHAR
STARTCHAR u0073
ENCODING 115
SWIDTH 666 0
DWIDTH 8 0
BBX 8 12 0 -4
BITMAP
00
00
00
00
7C
C6
70
1C
C6
7C
00
00
ENDCHAR
STARTCHAR u2510
ENCODING 9488
SWIDTH 666 0
DWIDTH 8 0
BBX 8 12 0 -4
BITMAP
00
00
00
00
00
F8
18
18
18
18
18
18
ENDCHAR
STARTCHAR u0067
ENCODING 103
SWIDTH 666 0
DWIDTH 8 0
BBX 8 12 0 -4
BITMAP
00
00
00
00
76
CE
C6
C6
CE
76
06
FC
ENDCHAR
STARTCHAR u255D
ENCODING 9565
SWIDTH 666 0
DWIDTH 8 0
BBX 8 12 0 -4
BITMAP
6C
6C
6C
6C
EC
0C
FC
00
00
00
00
00
ENDCHAR
STARTCHAR u00C9
ENCODING 201
SWIDTH 666 0
DWIDTH 8 0
BBX 8 12 0 -4
BITMAP
0E
18
FE
66
60
7C
60
60
66
FE
00
00
ENDCHAR
STARTCHAR u0071
ENCODING 113
SWIDTH 666 0
DWIDTH 8 0
BBX 8 12 0 -4
BITMAP
00
00
00
00
76
CC
CC
CC
CC
7C
0E
0E
ENDCHAR
STARTCHAR u0156
ENCODING 342
SWIDTH 666 0
DWIDTH 8 0
BBX 8 12 0 -4
BITMAP
00
FC
66
66
66
7C
78
6C
66
E6
06
1C
ENDCHAR
STARTCHAR u005B
ENCODING 91
SWIDTH 666 0
DWIDTH 8 0
BBX 8 12 0 -4
BITMAP
00
7C
60
60
60
60
60
60
60
7C
00
00
ENDCHAR
STARTCHAR u006B
ENCODING 107
SWIDTH 666 0
DWIDTH 8 0
BBX 8 12 0 -4
BITMAP
00
E0
60
60
66
6C
78
6C
66
E6
00
00
ENDCHAR
STARTCHAR u0057
ENCODING 87
SWIDTH 666 0
DWIDTH 8 0
BBX 8 12 0 -4
BITMAP
00
C6
C6
D6
D6
D6
FE
EE
C6
C6
00
00
ENDCHAR
STARTCHAR u00AE
ENCODING 174
SWIDTH 666 0
DWIDTH 8 0
BBX 8 12 0 -4
BITMAP
00
3C
42
B9
A5
B9
A5
A5
42
3C
00
00
ENDCHAR
STARTCHAR u004D
ENCODING 77
SWIDTH 666 0
DWIDTH 8 0
BBX 8 12 0 -4
BITMAP
00
C6
C6
EE
FE
D6
D6
D6
C6
C6
00
00
ENDCHAR
STARTCHAR u201C
ENCODING 8220
SWIDTH 666 0
DWIDTH 8 0
BBX 8 12 0 -4
BITMAP
00
66
CC
EE
EE
00
00
00
00
00
00
00
ENDCHAR
STARTCHAR u00D6
ENCODING 214
SWIDTH 666 0
DWIDTH 8 0
BBX 8 12 0 -4
BITMAP
C6
00
7C
C6
C6
C6
C6
C6
C6
7C
00
00
ENDCHAR
STARTCHAR u00DD
ENCODING 221
SWIDTH 666 0
DWIDTH 8 0
BBX 8 12 0 -4
BITMAP
0E
18
66
66
66
3C
18
18
18
3C
00
00
ENDCHAR
STARTCHAR u0027
ENCODING 39
SWIDTH 666 0
DWIDTH 8 0
BBX 8 12 0 -4
BITMAP
00
38
38
18
30
00
00
00
00
00
00
00
ENDCHAR
STARTCHAR u0040
ENCODING 64
SWIDTH 666 0
DWIDTH 8 0
BBX 8 12 0 -4
BITMAP
00
7C
C6
C6
DE
DE
DE
DC
C0
7E
00
00
ENDCHAR
STARTCHAR u0061
ENCODING 97
SWIDTH 666 0
DWIDTH 8 0
BBX 8 12 0 -4
BITMAP
00
00
00
00
78
0C
7C
CC
CC
76
00
00
ENDCHAR
STARTCHAR u02DB
ENCODING 731
SWIDTH 666 0
DWIDTH 8 0
BBX 8 12 0 -4
BITMAP
00
00
00
00
00
00
00
00
00
00
18
0E
ENDCHAR
STARTCHAR u0029
ENCODING 41
SWIDTH 666 0
DWIDTH 8 0
BBX 8 12 0 -4
BITMAP
00
30
18
0C
0C
0C
0C
0C
18
30
00
00
ENDCHAR
STARTCHAR u0034
ENCODING 52
SWIDTH 666 0
DWIDTH 8 0
BBX 8 12 0 -4
BITMAP
00
0C
1C
3C
6C
CC
FE
0C
0C
1E
00
00
ENDCHAR
STARTCHAR u0138
ENCODING 312
SWIDTH 666 0
DWIDTH 8 0
BBX 8 12 0 -4
BITMAP
00
00
00
E6
6C
68
78
68
6C
E6
00
00
ENDCHAR
STARTCHAR u012E
ENCODING 302
SWIDTH 666 0
DWIDTH 8 0
BBX 8 12 0 -4
BITMAP
00
3C
18
18
18
18
18
18
18
3C
1A
0C
ENDCHAR
STARTCHAR u2502
ENCODING 9474
SWIDTH 666 0
DWIDTH 8 0
BBX 8 12 0 -4
BITMAP
18
18
18
18
18
18
18
18
18
18
18
18
ENDCHAR
STARTCHAR u00E5
ENCODING 229
SWIDTH 666 0
DWIDTH 8 0
BBX 8 12 0 -4
BITMAP
00
38
6C
38
78
0C
7C
CC
CC
76
00
00
ENDCHAR
STARTCHAR u002D
ENCODING 45
SWIDTH 666 0
DWIDTH 8 0
BBX 8 12 0 -4
BITMAP
00
00
00
00
00
FE
00
00
00
00
00
00
ENDCHAR
STARTCHAR u0104
ENCODING 260
SWIDTH 666 0
DWIDTH 8 0
BBX 8 12 0 -4
BITMAP
00
38
6C
C6
C6
FE
C6
C6
C6
CE
18
0E
ENDCHAR
STARTCHAR u00ED
ENCODING 237
SWIDTH 666 0
DWIDTH 8 0
BBX 8 12 0 -4
BITMAP
00
0C
18
20
38
18
18
18
18
3C
00
00
ENDCHAR
STARTCHAR u0172
ENCODING 370
SWIDTH 666 0
DWIDTH 8 0
BBX 8 12 0 -4
BITMAP
00
C6
C6
C6
C6
C6
C6
C6
C6
7C
18
0E
ENDCHAR
STARTCHAR u0044
ENCODING 68
SWIDTH 666 0
DWIDTH 8 0
BBX 8 12 0 -4
BITMAP
00
F8
6C
66
66
66
66
66
6C
F8
00
00
ENDCHAR
STARTCHAR u013B
ENCODING 315
SWIDTH 666 0
DWIDTH 8 0
BBX 8 12 0 -4
BITMAP
00
F0
60
60
60
60
60
62
66
FE
18
70
ENDCHAR
STARTCHAR u0192
ENCODING 402
SWIDTH 666 0
DWIDTH 8 0
BBX 8 12 0 -4
BITMAP
00
1C
36
30
FC
30
30
30
30
78
00
00
ENDCHAR
STARTCHAR u0074
ENCODING 116
SWIDTH 666 0
DWIDTH 8 0
BBX 8 12 0 -4
BITMAP
00
30
30
30
FC
30
30
30
36
1C
00
00
ENDCHAR
STARTCHAR u0152
ENCODING 338
SWIDTH 666 0
DWIDTH 8 0
BBX 8 12 0 -4
BITMAP
00
6E
D8
D8
D8
DC
D8
D8
D8
6E
00
00
ENDCHAR
STARTCHAR u2513
ENCODING 9491
SWIDTH 666 0
DWIDTH 8 0
BBX 8 12 0 -4
BITMAP
00
00
00
00
FC
0C
EC
6C
6C
6C
6C
6C
ENDCHAR
STARTCHAR u0064
ENCODING 100
SWIDTH 666 0
DWIDTH 8 0
BBX 8 12 0 -4
BITMAP
00
1C
0C
0C
7C
CC
CC
CC
CC
7E
00
00
ENDCHAR
STARTCHAR u0078
ENCODING 120
SWIDTH 666 0
DWIDTH 8 0
BBX 8 12 0 -4
BITMAP
00
00
00
00
C6
6C
38
38
6C
C6
00
00
ENDCHAR
STARTCHAR u0053
ENCODING 83
SWIDTH 666 0
DWIDTH 8 0
BBX 8 12 0 -4
BITMAP
00
7C
C6
C6
60
38
0C
C6
C6
7C
00
00
ENDCHAR
STARTCHAR u017D
ENCODING 381
SWIDTH 666 0
DWIDTH 8 0
BBX 8 12 0 -4
BITMAP
6C
38
FE
86
0C
18
30
62
C6
FE
00
00
ENDCHAR
STARTCHAR u00D9
ENCODING 217
SWIDTH 666 0
DWIDTH 8 0
BBX 8 12 0 -4
BITMAP
70
18
C6
C6
C6
C6
C6
C6
C6
7C
00
00
ENDCHAR
STARTCHAR u00EF
ENCODING 239
SWIDTH 666 0
DWIDTH 8 0
BBX 8 12 0 -4
BITMAP
00
66
66
00
38
18
18
18
18
3C
00
00
ENDCHAR
STARTCHAR u2560
ENCODING 9568
SWIDTH 666 0
DWIDTH 8 0
BBX 8 12 0 -4
BITMAP
6C
6C
6C
6C
6F
60
6F
6C
6C
6C
6C
6C
ENDCHAR
STARTCHAR u007A
ENCODING 122
SWIDTH 666 0
DWIDTH 8 0
BBX 8 12 0 -4
BITMAP
00
00
00
00
FE
8C
18
30
62
FE
00
00
ENDCHAR
STARTCHAR u2533
ENCODING 9523
SWIDTH 666 0
DWIDTH 8 0
BBX 8 12 0 -4
BITMAP
00
00
00
00
FF
00
EF
6C
6C
6C
6C
6C
ENDCHAR
STARTCHAR u0119
ENCODING 281
SWIDTH 666 0
DWIDTH 8 0
BBX 8 12 0 -4
BITMAP
00
00
00
00
7C
C6
FE
C0
C6
7C
18
0E
ENDCHAR
STARTCHAR u010D
ENCODING 269
SWIDTH 666 0
DWIDTH 8 0
BBX 8 12 0 -4
BITMAP
00
6C
38
00
7C
C6
C0
C0
C6
7C
00
00
ENDCHAR
STARTCHAR u00CD
ENCODING 205
SWIDTH 666 0
DWIDTH 8 0
BBX 8 12 0 -4
BITMAP
1C
30
78
30
30
30
30
30
30
78
00
00
ENDCHAR
STARTCHAR u002A
ENCODING 42
SWIDTH 666 0
DWIDTH 8 0
BBX 8 12 0 -4
BITMAP
00
00
00
6C
38
FE
38
6C
00
00
00
00
ENDCHAR
STARTCHAR u016B
ENCODING 363
SWIDTH 666 0
DWIDTH 8 0
BBX 8 12 0 -4
BITMAP
00
00
7C
00
CC
CC
CC
CC
CC
76
00
00
ENDCHAR
STARTCHAR u002E
ENCODING 46
SWIDTH 666 0
DWIDTH 8 0
BBX 8 12 0 -4
BITMAP
00
00
00
00
00
00
00
00
38
38
00
00
ENDCHAR
STARTCHAR u00EB
ENCODING 235
SWIDTH 666 0
DWIDTH 8 0
BBX 8 12 0 -4
BITMAP
00
00
6C
00
7C
C6
FE
C0
C6
7C
00
00
ENDCHAR
STARTCHAR u0024
ENCODING 36
SWIDTH 666 0
DWIDTH 8 0
BBX 8 12 0 -4
BITMAP
18
7E
DB
D8
78
38
1E
1B
DB
7E
18
00
ENDCHAR
STARTCHAR u00D5
ENCODING 213
SWIDTH 666 0
DWIDTH 8 0
BBX 8 12 0 -4
BITMAP
76
CC
7C
C6
C6
C6
C6
C6
C6
7C
00
00
ENDCHAR
STARTCHAR u005E
ENCODING 94
SWIDTH 666 0
DWIDTH 8 0
BBX 8 12 0 -4
BITMAP
00
18
3C
66
00
00
00
00
00
00
00
00
ENDCHAR
STARTCHAR u0033
ENCODING 51
SWIDTH 666 0
DWIDTH 8 0
BBX 8 12 0 -4
BITMAP
00
7C
C6
06
06
3C
06
06
C6
7C
00
00
ENDCHAR
STARTCHAR u016A
ENCODING 362
SWIDTH 666 0
DWIDTH 8 0
BBX 8 12 0 -4
BITMAP
7C
00
C6
C6
C6
C6
C6
C6
C6
7C
00
00
ENDCHAR
STARTCHAR u0128
ENCODING 296
SWIDTH 666 0
DWIDTH 8 0
BBX 8 12 0 -4
BITMAP
76
DC
78
30
30
30
30
30
30
78
00
00
ENDCHAR
STARTCHAR u02C7
ENCODING 711
SWIDTH 666 0
DWIDTH 8 0
BBX 8 12 0 -4
BITMAP
6C
38
00
00
00
00
00
00
00
00
00
00
ENDCHAR
STARTCHAR u00A9
ENCODING 169
SWIDTH 666 0
DWIDTH 8 0
BBX 8 12 0 -4
BITMAP
00
3C
42
99
A5
A1
A5
99
42
3C
00
00
ENDCHAR
STARTCHAR u00AB
ENCODING 171
SWIDTH 666 0
DWIDTH 8 0
BBX 8 12 0 -4
BITMAP
00
00
00
36
6C
D8
6C
36
00
00
00
00
ENDCHAR
STARTCHAR u201D
ENCODING 8221
SWIDTH 666 0
DWIDTH 8 0
BBX 8 12 0 -4
BITMAP
00
EE
EE
66
CC
00
00
00
00
00
00
00
ENDCHAR
STARTCHAR u00C8
ENCODING 200
SWIDTH 666 0
DWIDTH 8 0
BBX 8 12 0 -4
BITMAP
38
0C
FE
66
60
78
60
60
66
FE
00
00
ENDCHAR
STARTCHAR u0178
ENCODING 376
SWIDTH 666 0
DWIDTH 8 0
BBX 8 12 0 -4
BITMAP
66
00
66
66
66
3C
18
18
18
3C
00
00
ENDCHAR
STARTCHAR u007D
ENCODING 125
SWIDTH 666 0
DWIDTH 8 0
BBX 8 12 0 -4
BITMAP
00
70
18
18
18
0E
18
18
18
70
00
00
ENDCHAR
STARTCHAR u250F
ENCODING 9487
SWIDTH 666 0
DWIDTH 8 0
BBX 8 12 0 -4
BITMAP
00
00
00
00
7F
60
6F
6C
6C
6C
6C
6C
ENDCHAR
STARTCHAR u002C
ENCODING 44
SWIDTH 666 0
DWIDTH 8 0
BBX 8 12 0 -4
BITMAP
00
00
00
00
00
00
00
00
38
38
18
30
ENDCHAR
STARTCHAR u0110
ENCODING 272
SWIDTH 666 0
DWIDTH 8 0
BBX 8 12 0 -4
BITMAP
00
F8
6C
66
F6
F6
66
66
6C
F8
00
00
ENDCHAR
STARTCHAR u005F
ENCODING 95
SWIDTH 666 0
DWIDTH 8 0
BBX 8 12 0 -4
BITMAP
00
00
00
00
00
00
00
00
00
00
00
FF
ENDCHAR
STARTCHAR u012A
ENCODING 298
SWIDTH 666 0
DWIDTH 8 0
BBX 8 12 0 -4
BITMAP
FC
00
78
30
30
30
30
30
30
78
00
00
ENDCHAR
STARTCHAR u00E7
ENCODING 231
SWIDTH 666 0
DWIDTH 8 0
BBX 8 12 0 -4
BITMAP
00
00
00
00
7C
C6
C0
C0
C6
7C
0C
38
ENDCHAR
STARTCHAR u00F3
ENCODING 243
SWIDTH 666 0
DWIDTH 8 0
BBX 8 12 0 -4
BITMAP
00
0C
18
20
7C
C6
C6
C6
C6
7C
00
00
ENDCHAR
STARTCHAR u006D
ENCODING 109
SWIDTH 666 0
DWIDTH 8 0
BBX 8 12 0 -4
BITMAP
00
00
00
00
6C
FE
D6
D6
C6
C6
00
00
ENDCHAR
STARTCHAR u212A
ENCODING 8490
SWIDTH 666 0
DWIDTH 8 0
BBX 8 12 0 -4
BITMAP
00
C6
C6
CC
D8
F0
D8
CC
C6
C6
00
00
ENDCHAR
STARTCHAR u2534
ENCODING 9524
SWIDTH 666 0
DWIDTH 8 0
BBX 8 12 0 -4
BITMAP
18
18
18
18
18
FF
00
00
00
00
00
00
ENDCHAR
STARTCHAR u0157
ENCODING 343
SWIDTH 666 0
DWIDTH 8 0
BBX 8 12 0 -4
BITMAP
00
00
00
00
DC
76
60
60
60
F0
30
E0
ENDCHAR
STARTCHAR u2039
ENCODING 8249
SWIDTH 666 0
DWIDTH 8 0
BBX 8 12 0 -4
BITMAP
00
00
0C
18
30
60
30
18
0C
00
00
00
ENDCHAR
STARTCHAR u004E
ENCODING 78
SWIDTH 666 0
DWIDTH 8 0
BBX 8 12 0 -4
BITMAP
00
C6
C6
E6
E6
F6
DE
CE
CE
C6
00
00
ENDCHAR
STARTCHAR u006A
ENCODING 106
SWIDTH 666 0
DWIDTH 8 0
BBX 8 12 0 -4
BITMAP
00
0C
0C
00
1C
0C
0C
0C
0C
CC
CC
78
ENDCHAR
STARTCHAR u0113
ENCODING 275
SWIDTH 666 0
DWIDTH 8 0
BBX 8 12 0 -4
BITMAP
00
00
7C
00
7C
C6
FE
C0
C6
7C
00
00
ENDCHAR
STARTCHAR u0041
ENCODING 65
SWIDTH 666 0
DWIDTH 8 0
BBX 8 12 0 -4
BITMAP
00
38
6C
C6
C6
FE
C6
C6
C6
C6
00
00
ENDCHAR
STARTCHAR u2014
ENCODING 8212
SWIDTH 666 0
DWIDTH 8 0
BBX 8 12 0 -4
BITMAP
00
00
00
00
00
FE
00
00
00
00
00
00
ENDCHAR
STARTCHAR u00C5
ENCODING 197
SWIDTH 666 0
DWIDTH 8 0
BBX 8 12 0 -4
BITMAP
38
6C
38
6C
C6
FE
C6
C6
C6
C6
00
00
ENDCHAR
STARTCHAR u00CB
ENCODING 203
SWIDTH 666 0
DWIDTH 8 0
BBX 8 12 0 -4
BITMAP
6C
00
FE
66
60
7C
60
60
66
FE
00
00
ENDCHAR
STARTCHAR u0105
ENCODING 261
SWIDTH 666 0
DWIDTH 8 0
BBX 8 12 0 -4
BITMAP
00
00
00
00
78
0C
7C
CC
CC
76
18
0E
ENDCHAR
STARTCHAR u0051
ENCODING 81
SWIDTH 666 0
DWIDTH 8 0
BBX 8 12 0 -4
BITMAP
00
7C
C6
C6
C6
C6
C6
C6
D6
7C
06
00
ENDCHAR
STARTCHAR u003C
ENCODING 60
SWIDTH 666 0
DWIDTH 8 0
BBX 8 12 0 -4
BITMAP
00
00
0C
18
30
60
30
18
0C
00
00
00
ENDCHAR
STARTCHAR u2592
ENCODING 9618
SWIDTH 666 0
DWIDTH 8 0
BBX 8 12 0 -4
BITMAP
55
AA
55
AA
55
AA
55
AA
55
AA
55
AA
ENDCHAR
STARTCHAR u0056
ENCODING 86
SWIDTH 666 0
DWIDTH 8 0
BBX 8 12 0 -4
BITMAP
00
C6
C6
C6
C6
C6
C6
6C
38
10
00
00
ENDCHAR
STARTCHAR u00F7
ENCODING 247
SWIDTH 666 0
DWIDTH 8 0
BBX 8 12 0 -4
BITMAP
00
00
00
18
18
00
7E
00
18
18
00
00
ENDCHAR
STARTCHAR u0173
ENCODING 371
SWIDTH 666 0
DWIDTH 8 0
BBX 8 12 0 -4
BITMAP
00
00
00
00
CC
CC
CC
CC
CC
76
18
0E
ENDCHAR
STARTCHAR u2018
ENCODING 8216
SWIDTH 666 0
DWIDTH 8 0
BBX 8 12 0 -4
BITMAP
00
38
38
30
18
00
00
00
00
00
00
00
ENDCHAR
STARTCHAR u00CC
ENCODING 204
SWIDTH 666 0
DWIDTH 8 0
BBX 8 12 0 -4
BITMAP
38
0C
3C
18
18
18
18
18
18
3C
00
00
ENDCHAR
STARTCHAR u2015
ENCODING 8213
SWIDTH 666 0
DWIDTH 8 0
BBX 8 12 0 -4
BITMAP
00
00
00
00
00
FE
00
00
00
00
00
00
ENDCHAR
STARTCHAR u00A5
ENCODING 165
SWIDTH 666 0
DWIDTH 8 0
BBX 8 12 0 -4
BITMAP
00
66
66
66
3C
7E
18
7E
18
3C
00
00
ENDCHAR
STARTCHAR u252B
ENCODING 9515
SWIDTH 666 0
DWIDTH 8 0
BBX 8 12 0 -4
BITMAP
6C
6C
6C
6C
EC
0C
EC
6C
6C
6C
6C
6C
ENDCHAR
STARTCHAR u02D9
ENCODING 729
SWIDTH 666 0
DWIDTH 8 0
BBX 8 12 0 -4
BITMAP
00
18
18
00
00
00
00
00
00
00
00
00
ENDCHAR
STARTCHAR u0052
ENCODING 82
SWIDTH 666 0
DWIDTH 8 0
BBX 8 12 0 -4
BITMAP
00
FC
66
66
66
7C
78
6C
66
E6
00
00
ENDCHAR
STARTCHAR u006E
ENCODING 110
SWIDTH 666 0
DWIDTH 8 0
BBX 8 12 0 -4
BITMAP
00
00
00
00
DC
66
66
66
66
66
00
00
ENDCHAR
STARTCHAR u014D
ENCODING 333
SWIDTH 666 0
DWIDTH 8 0
BBX 8 12 0 -4
BITMAP
00
00
7C
00
7C
C6
C6
C6
C6
7C
00
00
ENDCHAR
STARTCHAR u0153
ENCODING 339
SWIDTH 666 0
DWIDTH 8 0
BBX 8 12 0 -4
BITMAP
00
00
00
00
6E
DB
DF
D8
DB
6E
00
00
ENDCHAR
STARTCHAR u00E4
ENCODING 228
SWIDTH 666 0
DWIDTH 8 0
BBX 8 12 0 -4
BITMAP
00
00
6C
00
78
0C
7C
CC
CC
76
00
00
ENDCHAR
STARTCHAR u010C
ENCODING 268
SWIDTH 666 0
DWIDTH 8 0
BBX 8 12 0 -4
BITMAP
66
3C
3C
66
C2
C0
C0
C2
66
3C
00
00
ENDCHAR
STARTCHAR u0045
ENCODING 69
SWIDTH 666 0
DWIDTH 8 0
BBX 8 12 0 -4
BITMAP
00
FE
66
60
60
7C
60
60
66
FE
00
00
ENDCHAR
STARTCHAR u0070
ENCODING 112
SWIDTH 666 0
DWIDTH 8 0
BBX 8 12 0 -4
BITMAP
00
00
00
00
DC
66
66
66
66
7C
60
F0
ENDCHAR
STARTCHAR u00E0
ENCODING 224
SWIDTH 666 0
DWIDTH 8 0
BBX 8 12 0 -4
BITMAP
00
60
30
08
78
0C
7C
CC
CC
76
00
00
ENDCHAR
STARTCHAR u00BB
ENCODING 187
SWIDTH 666 0
DWIDTH 8 0
BBX 8 12 0 -4
BITMAP
00
00
00
D8
6C
36
6C
D8
00
00
00
00
ENDCHAR
STARTCHAR u00DF
ENCODING 223
SWIDTH 666 0
DWIDTH 8 0
BBX 8 12 0 -4
BITMAP
00
7C
C6
C6
FC
C6
C6
C6
CC
D0
C0
00
ENDCHAR
STARTCHAR u004F
ENCODING 79
SWIDTH 666 0
DWIDTH 8 0
BBX 8 12 0 -4
BITMAP
00
7C
C6
C6
C6
C6
C6
C6
C6
7C
00
00
ENDCHAR
STARTCHAR u0079
ENCODING 121
SWIDTH 666 0
DWIDTH 8 0
BBX 8 12 0 -4
BITMAP
00
00
00
00
C6
C6
6C
6C
38
18
30
E0
ENDCHAR
STARTCHAR u212B
ENCODING 8491
SWIDTH 666 0
DWIDTH 8 0
BBX 8 12 0 -4
BITMAP
38
6C
38
6C
C6
FE
C6
C6
C6
C6
00
00
ENDCHAR
STARTCHAR u00D4
ENCODING 212
SWIDTH 666 0
DWIDTH 8 0
BBX 8 12 0 -4
BITMAP
7C
82
7C
C6
C6
C6
C6
C6
C6
7C
00
00
ENDCHAR
STARTCHAR u2518
ENCODING 9496
SWIDTH 666 0
DWIDTH 8 0
BBX 8 12 0 -4
BITMAP
18
18
18
18
18
F8
00
00
00
00
00
00
ENDCHAR
STARTCHAR u251B
ENCODING 9499
SWIDTH 666 0
DWIDTH 8 0
BBX 8 12 0 -4
BITMAP
6C
6C
6C
6C
EC
0C
FC
00
00
00
00
00
ENDCHAR
STARTCHAR u0160
ENCODING 352
SWIDTH 666 0
DWIDTH 8 0
BBX 8 12 0 -4
BITMAP
6C
00
7C
C6
C0
78
0C
C6
C6
7C
00
00
ENDCHAR
STARTCHAR u2588
ENCODING 9608
SWIDTH 666 0
DWIDTH 8 0
BBX 8 12 0 -4
BITMAP
FF
FF
FF
FF
FF
FF
FF
FF
FF
FF
FF
FF
ENDCHAR
STARTCHAR u256C
ENCODING 9580
SWIDTH 666 0
DWIDTH 8 0
BBX 8 12 0 -4
BITMAP
6C
6C
6C
6C
EF
00
EF
6C
6C
6C
6C
6C
ENDCHAR
STARTCHAR u007E
ENCODING 126
SWIDTH 666 0
DWIDTH 8 0
BBX 8 12 0 -4
BITMAP
00
76
DC
00
00
00
00
00
00
00
00
00
ENDCHAR
STARTCHAR u00EE
ENCODING 238
SWIDTH 666 0
DWIDTH 8 0
BBX 8 12 0 -4
BITMAP
10
38
6C
00
38
18
18
18
18
3C
00
00
ENDCHAR
STARTCHAR u2563
ENCODING 9571
SWIDTH 666 0
DWIDTH 8 0
BBX 8 12 0 -4
BITMAP
6C
6C
6C
6C
EC
0C
EC
6C
6C
6C
6C
6C
ENDCHAR
STARTCHAR u00FB
ENCODING 251
SWIDTH 666 0
DWIDTH 8 0
BBX 8 12 0 -4
BITMAP
00
38
6C
00
CC
CC
CC
CC
CC
76
00
00
ENDCHAR
STARTCHAR u00FD
ENCODING 253
SWIDTH 666 0
DWIDTH 8 0
BBX 8 12 0 -4
BITMAP
00
0C
18
20
C6
C6
6C
6C
38
18
30
E0
ENDCHAR
STARTCHAR u0117
ENCODING 279
SWIDTH 666 0
DWIDTH 8 0
BBX 8 12 0 -4
BITMAP
00
10
38
10
7C
C6
FE
C0
C6
7C
00
00
ENDCHAR
STARTCHAR u00B0
ENCODING 176
SWIDTH 666 0
DWIDTH 8 0
BBX 8 12 0 -4
BITMAP
38
6C
6C
38
00
00
00
00
00
00
00
00
ENDCHAR
STARTCHAR u2550
ENCODING 9552
SWIDTH 666 0
DWIDTH 8 0
BBX 8 12 0 -4
BITMAP
00
00
00
00
FF
00
FF
00
00
00
00
00
ENDCHAR
STARTCHAR u00D1
ENCODING 209
SWIDTH 666 0
DWIDTH 8 0
BBX 8 12 0 -4
BITMAP
76
DC
00
E6
E6
F6
DE
CE
CE
C6
00
00
ENDCHAR
STARTCHAR u0100
ENCODING 256
SWIDTH 666 0
DWIDTH 8 0
BBX 8 12 0 -4
BITMAP
7C
00
7C
C6
C6
FE
C6
C6
C6
C6
00
00
ENDCHAR
STARTCHAR u00D8
ENCODING 216
SWIDTH 666 0
DWIDTH 8 0
BBX 8 12 0 -4
BITMAP
02
7E
CE
DE
D6
D6
D6
F6
E6
FC
80
00
ENDCHAR
STARTCHAR u0075
ENCODING 117
SWIDTH 666 0
DWIDTH 8 0
BBX 8 12 0 -4
BITMAP
00
00
00
00
CC
CC
CC
CC
CC
76
00
00
ENDCHAR
STARTCHAR u2019
ENCODING 8217
SWIDTH 666 0
DWIDTH 8 0
BBX 8 12 0 -4
BITMAP
00
38
38
18
30
00
00
00
00
00
00
00
ENDCHAR
STARTCHAR u0021
ENCODING 33
SWIDTH 666 0
DWIDTH 8 0
BBX 8 12 0 -4
BITMAP
00
18
3C
3C
3C
18
18
00
18
18
00
00
ENDCHAR
STARTCHAR u003F
ENCODING 63
SWIDTH 666 0
DWIDTH 8 0
BBX 8 12 0 -4
BITMAP
00
7C
C6
C6
0C
18
18
00
18
18
00
00
ENDCHAR
STARTCHAR u2517
ENCODING 9495
SWIDTH 666 0
DWIDTH 8 0
BBX 8 12 0 -4
BITMAP
6C
6C
6C
6C
6F
60
7F
00
00
00
00
00
ENDCHAR
STARTCHAR u00E3
ENCODING 227
SWIDTH 666 0
DWIDTH 8 0
BBX 8 12 0 -4
BITMAP
00
76
DC
00
78
0C
7C
CC
CC
76
00
00
ENDCHAR
STARTCHAR u0050
ENCODING 80
SWIDTH 666 0
DWIDTH 8 0
BBX 8 12 0 -4
BITMAP
00
FC
66
66
66
7C
60
60
60
F0
00
00
ENDCHAR
STARTCHAR u0063
ENCODING 99
SWIDTH 666 0
DWIDTH 8 0
BBX 8 12 0 -4
BITMAP
00
00
00
00
7C
C6
C0
C0
C6
7C
00
00
ENDCHAR
STARTCHAR u0048
ENCODING 72
SWIDTH 666 0
DWIDTH 8 0
BBX 8 12 0 -4
BITMAP
00
C6
C6
C6
C6
FE
C6
C6
C6
C6
00
00
ENDCHAR
STARTCHAR u00FF
ENCODING 255
SWIDTH 666 0
DWIDTH 8 0
BBX 8 12 0 -4
BITMAP
00
6C
6C
00
C6
C6
6C
6C
38
18
30
E0
ENDCHAR
STARTCHAR u0129
ENCODING 297
SWIDTH 666 0
DWIDTH 8 0
BBX 8 12 0 -4
BITMAP
00
76
DC
00
38
18
18
18
18
3C
00
00
ENDCHAR
STARTCHAR u0167
ENCODING 359
SWIDTH 666 0
DWIDTH 8 0
BBX 8 12 0 -4
BITMAP
00
30
30
FC
30
3C
38
70
F6
1C
00
00
ENDCHAR
STARTCHAR u2569
ENCODING 9577
SWIDTH 666 0
DWIDTH 8 0
BBX 8 12 0 -4
BITMAP
6C
6C
6C
6C
EF
00
FF
00
00
00
00
00
ENDCHAR
STARTCHAR u006C
ENCODING 108
SWIDTH 666 0
DWIDTH 8 0
BBX 8 12 0 -4
BITMAP
00
38
18
18
18
18
18
18
18
3C
00
00
ENDCHAR
STARTCHAR u005C
ENCODING 92
SWIDTH 666 0
DWIDTH 8 0
BBX 8 12 0 -4
BITMAP
00
C0
E0
60
30
38
18
0C
0E
06
00
00
ENDCHAR
STARTCHAR u255A
ENCODING 9562
SWIDTH 666 0
DWIDTH 8 0
BBX 8 12 0 -4
BITMAP
6C
6C
6C
6C
6F
60
7F
00
00
00
00
00
ENDCHAR
STARTCHAR u00E8
ENCODING 232
SWIDTH 666 0
DWIDTH 8 0
BBX 8 12 0 -4
BITMAP
00
30
18
04
7C
C6
FE
C0
C6
7C
00
00
ENDCHAR
STARTCHAR u2013
ENCODING 8211
SWIDTH 666 0
DWIDTH 8 0
BBX 8 12 0 -4
BITMAP
00
00
00
00
00
00
3C
00
00
00
00
00
ENDCHAR
STARTCHAR u00E1
ENCODING 225
SWIDTH 666 0
DWIDTH 8 0
BBX 8 12 0 -4
BITMAP
00
0C
18
20
78
0C
7C
CC
CC
76
00
00
ENDCHAR
STARTCHAR u014A
ENCODING 330
SWIDTH 666 0
DWIDTH 8 0
BBX 8 12 0 -4
BITMAP
00
DC
FE
F6
C6
C6
C6
C6
C6
DC
00
00
ENDCHAR
STARTCHAR u00CF
ENCODING 207
SWIDTH 666 0
DWIDTH 8 0
BBX 8 12 0 -4
BITMAP
66
00
3C
18
18
18
18
18
18
3C
00
00
ENDCHAR
STARTCHAR u00A7
ENCODING 167
SWIDTH 666 0
DWIDTH 8 0
BBX 8 12 0 -4
BITMAP
00
3C
62
38
6C
C6
6C
38
8C
78
00
00
ENDCHAR
STARTCHAR u0030
ENCODING 48
SWIDTH 666 0
DWIDTH 8 0
BBX 8 12 0 -4
BITMAP
00
7C
C6
CE
D6
D6
D6
E6
C6
7C
00
00
ENDCHAR
STARTCHAR u0168
ENCODING 360
SWIDTH 666 0
DWIDTH 8 0
BBX 8 12 0 -4
BITMAP
76
DC
00
C6
C6
C6
C6
C6
C6
7C
00
00
ENDCHAR
STARTCHAR uFFFD
ENCODING 65533
SWIDTH 666 0
DWIDTH 8 0
BBX 8 12 0 -4
BITMAP
7E
C3
99
99
F3
E7
E7
FF
E7
E7
7E
00
ENDCHAR
STARTCHAR u0122
ENCODING 290
SWIDTH 666 0
DWIDTH 8 0
BBX 8 12 0 -4
BITMAP
00
7C
C6
C6
C0
C0
CE
C6
C6
7C
0C
38
ENDCHAR
STARTCHAR u007B
ENCODING 123
SWIDTH 666 0
DWIDTH 8 0
BBX 8 12 0 -4
BITMAP
00
0E
18
18
18
70
18
18
18
0E
00
00
ENDCHAR
STARTCHAR u0032
ENCODING 50
SWIDTH 666 0
DWIDTH 8 0
BBX 8 12 0 -4
BITMAP
00
7C
C6
C6
0C
18
30
60
C6
FE
00
00
ENDCHAR
STARTCHAR u00D2
ENCODING 210
SWIDTH 666 0
DWIDTH 8 0
BBX 8 12 0 -4
BITMAP
38
0C
7C
C6
C6
C6
C6
C6
C6
7C
00
00
ENDCHAR
STARTCHAR u254B
ENCODING 9547
SWIDTH 666 0
DWIDTH 8 0
BBX 8 12 0 -4
BITMAP
6C
6C
6C
6C
EF
00
EF
6C
6C
6C
6C
6C
ENDCHAR
STARTCHAR u2566
ENCODING 9574
SWIDTH 666 0
DWIDTH 8 0
BBX 8 12 0 -4
BITMAP
00
00
00
00
FF
00
EF
6C
6C
6C
6C
6C
ENDCHAR
STARTCHAR u00AD
ENCODING 173
SWIDTH 666 0
DWIDTH 8 0
BBX 8 12 0 -4
BITMAP
00
00
00
00
00
00
3C
00
00
00
00
00
ENDCHAR
STARTCHAR u0038
ENCODING 56
SWIDTH 666 0
DWIDTH 8 0
BBX 8 12 0 -4
BITMAP
00
7C
C6
C6
C6
7C
C6
C6
C6
7C
00
00
ENDCHAR
STARTCHAR u0042
ENCODING 66
SWIDTH 666 0
DWIDTH 8 0
BBX 8 12 0 -4
BITMAP
00
FC
66
66
66
7C
66
66
66
FC
00
00
ENDCHAR
STARTCHAR u0036
ENCODING 54
SWIDTH 666 0
DWIDTH 8 0
BBX 8 12 0 -4
BITMAP
00
7C
C6
C0
FC
C6
C6
C6
C6
7C
00
00
ENDCHAR
STARTCHAR u0112
ENCODING 274
SWIDTH 666 0
DWIDTH 8 0
BBX 8 12 0 -4
BITMAP
7C
00
FE
66
60
7C
60
60
66
FE
00
00
ENDCHAR
STARTCHAR u0046
ENCODING 70
SWIDTH 666 0
DWIDTH 8 0
BBX 8 12 0 -4
BITMAP
00
FE
66
60
60
7C
60
60
60
F0
00
00
ENDCHAR
STARTCHAR u00A6
ENCODING 166
SWIDTH 666 0
DWIDTH 8 0
BBX 8 12 0 -4
BITMAP
00
18
18
18
18
18
18
18
18
18
00
00
ENDCHAR
STARTCHAR u0161
ENCODING 353
SWIDTH 666 0
DWIDTH 8 0
BBX 8 12 0 -4
BITMAP
00
6C
38
00
7C
C6
70
1C
C6
7C
00
00
ENDCHAR
STARTCHAR u0058
ENCODING 88
SWIDTH 666 0
DWIDTH 8 0
BBX 8 12 0 -4
BITMAP
00
C6
C6
6C
38
38
38
6C
C6
C6
00
00
ENDCHAR
STARTCHAR u2557
ENCODING 9559
SWIDTH 666 0
DWIDTH 8 0
BBX 8 12 0 -4
BITMAP
00
00
00
00
FC
0C
EC
6C
6C
6C
6C
6C
ENDCHAR
STARTCHAR u2500
ENCODING 9472
SWIDTH 666 0
DWIDTH 8 0
BBX 8 12 0 -4
BITMAP
00
00
00
00
00
FF
00
00
00
00
00
00
ENDCHAR
STARTCHAR u00FC
ENCODING 252
SWIDTH 666 0
DWIDTH 8 0
BBX 8 12 0 -4
BITMAP
00
00
CC
00
CC
CC
CC
CC
CC
76
00
00
ENDCHAR
STARTCHAR u004B
ENCODING 75
SWIDTH 666 0
DWIDTH 8 0
BBX 8 12 0 -4
BITMAP
00
C6
C6
CC
D8
F0
D8
CC
C6
C6
00
00
ENDCHAR
STARTCHAR u0028
ENCODING 40
SWIDTH 666 0
DWIDTH 8 0
BBX 8 12 0 -4
BITMAP
00
0C
18
30
30
30
30
30
18
0C
00
00
ENDCHAR
STARTCHAR u0136
ENCODING 310
SWIDTH 666 0
DWIDTH 8 0
BBX 8 12 0 -4
BITMAP
00
C6
C6
CC
D8
F0
D8
CC
C6
C6
0C
38
ENDCHAR
STARTCHAR u00FA
ENCODING 250
SWIDTH 666 0
DWIDTH 8 0
BBX 8 12 0 -4
BITMAP
00
0C
18
20
CC
CC
CC
CC
CC
76
00
00
ENDCHAR
STARTCHAR u012F
ENCODING 303
SWIDTH 666 0
DWIDTH 8 0
BBX 8 12 0 -4
BITMAP
00
18
18
00
38
18
18
18
18
3C
18
0E
ENDCHAR
STARTCHAR u00C0
ENCODING 192
SWIDTH 666 0
DWIDTH 8 0
BBX 8 12 0 -4
BITMAP
70
18
7C
C6
C6
C6
FE
C6
C6
C6
00
00
ENDCHAR
STARTCHAR u003B
ENCODING 59
SWIDTH 666 0
DWIDTH 8 0
BBX 8 12 0 -4
BITMAP
00
00
00
00
38
38
00
00
38
38
18
30
ENDCHAR
STARTCHAR u00D7
ENCODING 215
SWIDTH 666 0
DWIDTH 8 0
BBX 8 12 0 -4
BITMAP
00
00
00
C6
6C
38
6C
C6
00
00
00
00
ENDCHAR
STARTCHAR u03C0
ENCODING 960
SWIDTH 666 0
DWIDTH 8 0
BBX 8 12 0 -4
BITMAP
00
00
00
00
FE
6C
6C
6C
6C
6C
00
00
ENDCHAR
STARTCHAR u0116
ENCODING 278
SWIDTH 666 0
DWIDTH 8 0
BBX 8 12 0 -4
BITMAP
38
00
FE
66
60
7C
60
60
66
FE
00
00
ENDCHAR
STARTCHAR u0035
ENCODING 53
SWIDTH 666 0
DWIDTH 8 0
BBX 8 12 0 -4
BITMAP
00
FE
C0
C0
FC
06
06
86
C6
7C
00
00
ENDCHAR
STARTCHAR u00F5
ENCODING 245
SWIDTH 666 0
DWIDTH 8 0
BBX 8 12 0 -4
BITMAP
00
76
DC
00
7C
C6
C6
C6
C6
7C
00
00
ENDCHAR
STARTCHAR u2523
ENCODING 9507
SWIDTH 666 0
DWIDTH 8 0
BBX 8 12 0 -4
BITMAP
6C
6C
6C
6C
6F
60
6F
6C
6C
6C
6C
6C
ENDCHAR
STARTCHAR u252C
ENCODING 9516
SWIDTH 666 0
DWIDTH 8 0
BBX 8 12 0 -4
BITMAP
00
00
00
00
00
FF
18
18
18
18
18
18
ENDCHAR
STARTCHAR u00DB
ENCODING 219
SWIDTH 666 0
DWIDTH 8 0
BBX 8 12 0 -4
BITMAP
38
6C
82
C6
C6
C6
C6
C6
C6
7C
00
00
ENDCHAR
STARTCHAR u0101
ENCODING 257
SWIDTH 666 0
DWIDTH 8 0
BBX 8 12 0 -4
BITMAP
00
00
7C
00
78
0C
7C
CC
DC
76
00
00
ENDCHAR
STARTCHAR u0069
ENCODING 105
SWIDTH 666 0
DWIDTH 8 0
BBX 8 12 0 -4
BITMAP
00
18
18
00
38
18
18
18
18
3C
00
00
ENDCHAR
STARTCHAR u0055
ENCODING 85
SWIDTH 666 0
DWIDTH 8 0
BBX 8 12 0 -4
BITMAP
00
C6
C6
C6
C6
C6
C6
C6
C6
7C
00
00
ENDCHAR
STARTCHAR u00F8
ENCODING 248
SWIDTH 666 0
DWIDTH 8 0
BBX 8 12 0 -4
BITMAP
00
00
00
06
7C
CE
DE
F6
E6
FC
00
00
ENDCHAR
STARTCHAR u014C
ENCODING 332
SWIDTH 666 0
DWIDTH 8 0
BBX 8 12 0 -4
BITMAP
7C
00
7C
C6
C6
C6
C6
C6
C6
7C
00
00
ENDCHAR
STARTCHAR u006F
ENCODING 111
SWIDTH 666 0
DWIDTH 8 0
BBX 8 12 0 -4
BITMAP
00
00
00
00
7C
C6
C6
C6
C6
7C
00
00
ENDCHAR
STARTCHAR u0026
ENCODING 38
SWIDTH 666 0
DWIDTH 8 0
BBX 8 12 0 -4
BITMAP
00
38
6C
38
38
76
F6
CE
CC
76
00
00
ENDCHAR
STARTCHAR u0022
ENCODING 34
SWIDTH 666 0
DWIDTH 8 0
BBX 8 12 0 -4
BITMAP
00
EE
EE
66
CC
00
00
00
00
00
00
00
ENDCHAR
STARTCHAR u00A4
ENCODING 164
SWIDTH 666 0
DWIDTH 8 0
BBX 8 12 0 -4
BITMAP
00
00
42
3C
66
C3
C3
66
3C
42
00
00
ENDCHAR
STARTCHAR u00C4
ENCODING 196
SWIDTH 666 0
DWIDTH 8 0
BBX 8 12 0 -4
BITMAP
C6
38
6C
C6
C6
FE
C6
C6
C6
C6
00
00
ENDCHAR
STARTCHAR u00F2
ENCODING 242
SWIDTH 666 0
DWIDTH 8 0
BBX 8 12 0 -4
BITMAP
00
60
30
08
7C
C6
C6
C6
C6
7C
00
00
ENDCHAR
STARTCHAR u2593
ENCODING 9619
SWIDTH 666 0
DWIDTH 8 0
BBX 8 12 0 -4
BITMAP
EE
BB
EE
BB
EE
BB
EE
BB
EE
BB
EE
BB
ENDCHAR
ENDFONT
